<?xml version="1.0" standalone="no"?>
<!DOCTYPE svg PUBLIC "-//W3C//DTD SVG 20010904//EN"
 "http://www.w3.org/TR/2001/REC-SVG-20010904/DTD/svg10.dtd">
<svg version="1.0" xmlns="http://www.w3.org/2000/svg"
 width="1024.000000pt" height="1024.000000pt" viewBox="0 0 1024.000000 1024.000000"
 preserveAspectRatio="xMidYMid meet">

<g transform="translate(0.000000,1024.000000) scale(0.100000,-0.100000)"
fill="#000000" stroke="none">
<path d="M4930 7474 c-343 -42 -606 -141 -873 -331 -132 -93 -330 -298 -420
-433 -127 -192 -214 -395 -264 -620 -21 -95 -27 -149 -31 -308 -8 -345 42
-575 190 -862 85 -166 175 -287 318 -430 176 -176 340 -287 563 -384 213 -92
372 -125 637 -133 168 -4 212 -2 315 15 338 59 614 185 866 398 316 267 517
617 596 1037 27 146 25 477 -5 625 -128 640 -569 1138 -1189 1347 -154 51
-303 76 -493 80 -96 2 -191 1 -210 -1z m453 -178 c211 -39 451 -142 637 -273
120 -85 306 -270 388 -388 117 -165 206 -375 253 -595 20 -89 23 -136 24 -305
0 -223 -17 -341 -76 -518 -191 -568 -668 -972 -1267 -1072 -153 -26 -447 -17
-592 18 -497 119 -886 430 -1100 879 -103 217 -139 374 -147 638 -5 159 -2
202 16 309 116 679 651 1206 1336 1315 117 19 406 15 528 -8z"/>
<path d="M4920 7229 c-309 -40 -602 -172 -832 -376 -293 -260 -458 -586 -503
-994 l-6 -56 90 -7 c49 -4 123 -6 163 -5 l73 2 0 -64 0 -64 -162 -3 c-121 -2
-163 -6 -163 -15 0 -57 26 -213 50 -306 161 -615 698 -1070 1330 -1126 l75 -7
0 164 0 163 65 0 65 0 3 -163 3 -164 62 7 c357 39 677 189 928 435 166 163
278 340 359 570 47 130 82 306 78 385 l-3 58 -155 1 -155 1 -3 62 -3 63 162 2
163 3 -3 60 c-7 154 -71 385 -149 541 -111 220 -265 401 -460 541 -179 128
-354 213 -527 253 -96 23 -285 51 -297 43 -5 -2 -8 -74 -8 -159 l0 -154 -59 0
c-72 0 -71 -4 -71 183 0 157 13 142 -110 126z m823 -185 c18 -9 34 -18 36 -20
2 -2 -50 -103 -64 -122 -3 -4 -75 39 -75 44 0 12 56 114 63 114 4 0 22 -7 40
-16z m-1311 -89 c15 -28 28 -53 28 -56 0 -6 -71 -41 -75 -37 -22 25 -66 113
-58 115 5 2 19 10 29 18 30 23 47 14 76 -40z m875 -250 c163 -34 341 -122 447
-219 l36 -33 -100 -67 -100 -66 -53 40 c-120 90 -258 133 -432 134 -181 1
-317 -44 -455 -152 -64 -50 -65 -51 -90 -34 -14 9 -50 31 -80 48 -104 62 -102
57 -45 111 226 211 565 304 872 238z m706 -257 c-225 -227 -374 -382 -387
-406 -7 -11 -5 -14 6 -9 9 3 15 0 15 -6 -1 -45 4 -67 14 -61 9 5 10 -1 5 -22
-15 -64 -15 -68 0 -34 13 27 14 43 7 73 -7 23 -7 40 -1 43 5 4 7 17 4 30 -4
13 -2 24 3 24 20 0 25 -150 6 -195 -4 -11 -21 -54 -37 -95 -35 -89 -65 -131
-119 -167 -38 -25 -52 -53 -26 -53 7 0 30 9 51 21 47 25 54 20 21 -15 -14 -15
-24 -33 -23 -39 5 -23 -23 -57 -46 -57 -13 0 -29 -6 -35 -13 -10 -13 -81 -39
-98 -36 -23 4 -155 -2 -151 -7 4 -3 32 -16 65 -30 l58 -24 -64 0 c-73 0 -164
21 -236 56 -27 13 -53 20 -58 15 -8 -8 4 -19 73 -71 14 -10 21 -22 17 -26 -8
-9 -60 18 -94 49 -30 27 -38 17 -17 -19 18 -31 26 -36 155 -101 52 -26 75 -43
62 -43 -13 0 -23 -4 -23 -10 0 -5 5 -10 12 -10 9 0 9 -3 0 -12 -10 -10 -15
-10 -22 2 -5 8 -12 11 -16 7 -4 -4 -13 2 -21 13 -8 11 -23 20 -34 20 -11 0
-40 11 -64 25 -42 25 -65 46 -145 134 -22 24 -40 39 -40 33 0 -31 -27 -7 -43
38 -12 33 -23 50 -35 50 -13 0 -14 2 -4 9 11 7 11 16 2 52 -11 38 -14 41 -21
24 -7 -14 -8 -6 -5 28 4 53 -2 56 -14 5 l-8 -33 -1 30 c-1 41 34 140 59 165
11 11 20 26 20 33 0 6 -14 -4 -30 -23 -34 -40 -39 -32 -10 14 l19 32 -56 55
c-31 30 -53 48 -49 42 5 -8 -6 -21 -29 -34 -24 -14 -38 -31 -42 -50 -3 -16
-13 -31 -23 -34 -10 -3 -35 -30 -56 -60 -20 -30 -42 -55 -47 -55 -5 0 -7 -8
-4 -19 2 -10 -4 -29 -15 -42 -12 -15 -18 -18 -15 -7 3 9 -1 22 -8 28 -12 10
-9 18 17 51 17 21 32 48 33 61 1 13 3 25 4 28 0 3 15 14 31 23 17 10 30 26 30
36 0 10 10 26 23 34 12 9 36 28 52 42 l30 27 -235 228 c-129 125 -232 231
-229 234 4 4 44 -15 90 -42 137 -80 431 -248 467 -266 29 -15 36 -16 55 -3 36
23 125 27 241 12 60 -8 120 -12 132 -9 28 7 109 -28 139 -60 l23 -25 41 31
c23 16 41 33 41 37 0 9 -56 51 -68 51 -6 0 -12 11 -14 25 -5 23 6 36 14 18 2
-5 20 -17 41 -27 20 -11 35 -21 32 -24 -2 -3 3 -11 12 -17 15 -11 26 -6 76 29
33 22 83 57 112 76 30 19 175 117 324 218 149 100 274 182 278 182 4 0 -83
-91 -194 -202z m-2077 65 c29 -21 54 -40 54 -43 0 -3 -11 -18 -24 -34 l-23
-30 -44 27 c-76 45 -72 40 -49 80 12 21 24 37 27 37 3 0 29 -17 59 -37z m2407
-5 c21 -37 24 -33 -64 -86 l-37 -22 -21 34 c-12 18 -21 36 -21 39 0 7 102 67
115 67 6 0 18 -15 28 -32z m-1416 -184 c-3 -3 -12 -4 -19 -1 -8 3 -5 6 6 6 11
1 17 -2 13 -5z m125 -6 c21 -6 34 -14 28 -18 -12 -8 -104 10 -116 23 -11 11
44 8 88 -5z m83 -28 c-3 -5 -11 -10 -16 -10 -6 0 -7 5 -4 10 3 6 11 10 16 10
6 0 7 -4 4 -10z m118 -37 c-7 -2 -19 -2 -25 0 -7 3 -2 5 12 5 14 0 19 -2 13
-5z m-910 -80 c40 -37 75 -71 78 -76 3 -4 -10 -54 -29 -109 -41 -121 -53 -259
-32 -385 38 -236 194 -444 413 -551 135 -66 214 -86 352 -85 151 0 251 27 369
98 l57 34 104 -52 c57 -29 104 -57 104 -64 1 -20 -120 -104 -214 -149 -152
-72 -233 -89 -425 -89 -186 0 -271 17 -407 80 -317 146 -527 424 -578 762 -19
125 -19 198 0 309 24 138 99 344 125 344 6 0 43 -30 83 -67z m895 -3 c6 0 16
-9 22 -20 6 -11 14 -19 18 -16 4 2 16 -2 27 -11 19 -13 18 -14 -10 -7 -45 10
-83 32 -95 53 -15 29 -12 36 8 18 10 -10 24 -17 30 -17z m-63 10 c3 -5 1 -10
-4 -10 -6 0 -11 5 -11 10 0 6 2 10 4 10 3 0 8 -4 11 -10z m-445 -305 c0 -3
-12 -18 -26 -33 l-26 -27 18 33 c16 28 34 42 34 27z m1070 -36 c-7 -11 -14
-18 -17 -15 -8 8 5 36 17 36 7 0 7 -6 0 -21z m200 -68 c0 -5 -9 -11 -19 -14
-14 -3 -18 -1 -14 9 6 15 33 19 33 5z m-250 -35 c0 -3 -4 -8 -10 -11 -5 -3
-10 -1 -10 4 0 6 5 11 10 11 6 0 10 -2 10 -4z m-1350 -102 c0 -8 -4 -14 -10
-14 -5 0 -10 9 -10 21 0 11 5 17 10 14 6 -3 10 -13 10 -21z m1280 -3 c0 -14
-18 -23 -30 -16 -6 4 -8 11 -5 16 8 12 35 12 35 0z m-20 -35 c0 -2 -7 -9 -15
-16 -12 -10 -15 -10 -15 4 0 9 7 16 15 16 8 0 15 -2 15 -4z m-190 -166 c0 -5
-4 -10 -10 -10 -5 0 -10 5 -10 10 0 6 5 10 10 10 6 0 10 -4 10 -10z m125 -6
c-11 -8 -32 -18 -47 -21 -15 -3 -25 -9 -22 -14 3 -5 -6 -9 -20 -9 -55 0 -21
26 64 49 47 13 48 12 25 -5z m-370 -252 c-3 -3 -11 0 -18 7 -9 10 -8 11 6 5
10 -3 15 -9 12 -12z m62 -6 c21 -24 21 -24 1 -29 -16 -5 -19 -2 -15 14 3 12 0
19 -10 19 -8 0 -11 5 -8 10 8 13 8 13 32 -14z m-1324 -115 c9 -16 17 -34 17
-39 0 -10 -110 -77 -114 -70 -1 2 -12 17 -25 35 l-22 32 38 24 c51 32 77 46
83 47 3 0 13 -13 23 -29z m2354 -3 c29 -18 53 -37 53 -43 0 -8 -18 -40 -36
-64 -3 -3 -100 53 -113 65 -5 4 31 74 38 74 3 0 29 -14 58 -32z m-1964 -440
c18 -12 34 -23 36 -25 2 -1 -13 -28 -33 -58 l-37 -56 -29 21 c-16 12 -32 25
-35 30 -5 8 54 109 63 110 2 0 18 -10 35 -22z m1401 -124 c15 -30 24 -59 21
-63 -6 -10 -64 -35 -69 -30 -14 19 -56 100 -56 108 0 11 47 40 66 41 7 0 24
-25 38 -56z"/>
<path d="M5885 6399 c-38 -28 -142 -100 -230 -159 -88 -60 -236 -162 -328
-227 l-168 -119 -57 6 c-47 5 -77 18 -172 75 -63 37 -198 115 -300 173 -102
58 -196 112 -210 122 -71 49 -54 27 74 -98 450 -438 436 -424 436 -457 0 -72
90 -155 168 -155 79 0 154 65 166 142 6 39 17 55 92 129 113 112 607 619 603
619 -2 -1 -35 -24 -74 -51z m-734 -579 c22 -12 49 -61 49 -89 0 -61 -60 -109
-122 -97 -47 9 -69 36 -75 90 -5 40 -2 48 25 76 32 32 84 40 123 20z"/>
<path d="M4890 6090 c0 -5 5 -10 10 -10 6 0 10 5 10 10 0 6 -4 10 -10 10 -5 0
-10 -4 -10 -10z"/>
<path d="M4904 6041 c9 -13 53 -19 68 -9 10 7 8 8 -4 4 -10 -3 -18 -1 -18 4 0
6 -12 10 -26 10 -14 0 -23 -4 -20 -9z"/>
<path d="M5599 6028 c-5 -17 -5 -57 2 -73 5 -14 8 -7 8 28 1 26 -1 47 -4 47
-3 0 -5 -1 -6 -2z"/>
<path d="M5546 5970 c-15 -17 -24 -35 -21 -41 4 -5 1 -8 -7 -7 -7 2 -13 -3
-12 -9 1 -7 2 -25 3 -40 1 -22 3 -25 11 -13 8 12 10 9 10 -12 0 -16 4 -28 8
-28 17 0 34 56 38 118 2 34 3 62 1 62 -2 0 -16 -14 -31 -30z"/>
<path d="M4796 5556 c5 -60 9 -74 19 -64 3 3 -1 32 -9 64 l-15 59 5 -59z"/>
<path d="M2878 3366 c-86 -23 -172 -98 -212 -185 -29 -66 -29 -198 1 -263 55
-119 170 -191 305 -192 65 0 85 5 140 32 35 17 75 43 88 57 l24 26 -37 36 -36
37 -23 -21 c-44 -41 -116 -66 -175 -60 -97 10 -165 72 -185 171 -20 94 7 166
86 230 31 26 47 31 105 34 74 4 113 -9 162 -55 l26 -24 32 38 c17 21 30 42 28
48 -2 5 -23 25 -46 42 -75 58 -182 76 -283 49z"/>
<path d="M5005 3367 c-63 -21 -98 -42 -144 -87 -99 -96 -124 -244 -62 -372 35
-74 90 -130 160 -161 65 -30 207 -30 271 1 68 32 122 84 155 148 27 53 30 68
30 154 0 110 -21 166 -88 233 -77 77 -225 116 -322 84z m180 -116 c133 -60
162 -266 53 -368 -87 -82 -243 -66 -310 32 -77 111 -41 276 72 333 55 27 129
29 185 3z"/>
<path d="M6550 3367 c-91 -26 -173 -96 -212 -182 -35 -77 -33 -200 5 -277 16
-32 49 -76 76 -100 162 -146 432 -90 523 107 18 40 23 67 23 135 -1 73 -5 93
-30 143 -34 69 -97 130 -163 158 -59 26 -163 33 -222 16z m168 -112 c84 -36
126 -106 127 -210 0 -95 -32 -152 -107 -189 -70 -35 -129 -35 -199 2 -156 81
-141 336 23 402 36 14 115 11 156 -5z"/>
<path d="M7246 3366 c-59 -22 -88 -47 -113 -96 -28 -54 -29 -101 -4 -157 25
-55 51 -70 184 -109 117 -35 147 -55 147 -99 0 -87 -163 -102 -270 -24 l-39
29 -26 -37 c-14 -21 -25 -42 -25 -48 0 -15 61 -53 119 -76 57 -21 163 -25 224
-8 85 23 149 120 132 200 -18 87 -65 123 -214 166 -47 14 -96 34 -108 46 -45
41 -18 108 49 122 40 9 92 -2 150 -31 26 -13 49 -24 52 -24 6 0 46 69 46 80 0
5 -28 23 -63 40 -77 38 -180 49 -241 26z"/>
<path d="M3377 3363 c-4 -3 -7 -147 -7 -320 l0 -313 55 0 54 0 3 133 3 132
148 3 147 3 0 -136 0 -135 60 0 60 0 -2 318 -3 317 -55 0 -55 0 -3 -132 -3
-133 -143 0 c-122 0 -145 2 -150 16 -3 9 -6 69 -6 135 l0 119 -48 0 c-27 0
-52 -3 -55 -7z"/>
<path d="M4107 3363 c-4 -3 -7 -147 -7 -320 l0 -313 60 0 60 0 0 110 0 110 69
0 70 0 73 -110 73 -109 68 -1 67 0 -70 105 c-39 58 -73 112 -76 119 -3 8 7 18
24 25 87 36 131 146 102 253 -15 53 -87 114 -151 127 -54 12 -351 15 -362 4z
m379 -136 c17 -20 24 -40 24 -68 0 -86 -40 -109 -190 -109 l-100 0 0 103 c0
57 2 106 4 108 2 2 57 2 121 -1 113 -5 118 -6 141 -33z"/>
<path d="M6035 3358 c-3 -7 -6 -105 -7 -218 l-3 -205 -55 71 c-30 39 -104 135
-164 213 l-108 141 -54 0 -54 0 2 -312 3 -313 45 -1 c25 -1 50 1 56 3 8 3 10
65 7 214 -3 117 -1 209 4 209 8 0 113 -132 268 -337 l70 -93 48 0 47 0 -2 318
-3 317 -48 3 c-32 2 -49 -1 -52 -10z"/>
</g>
</svg>
